<svg width="10" height="10" viewBox="0 0 10 10" fill="none" xmlns="http://www.w3.org/2000/svg">
<path d="M1.25415 4.67505V6.54588C1.25415 8.41672 2.00415 9.16672 3.87498 9.16672H6.12082C7.99165 9.16672 8.74165 8.41672 8.74165 6.54588V4.67505" stroke="#73B704" stroke-width="0.5" stroke-linecap="round" stroke-linejoin="round"/>
<path d="M5.00024 4.99992C5.76274 4.99992 6.32524 4.37909 6.25024 3.61659L5.97524 0.833252H4.02941L3.75024 3.61659C3.67524 4.37909 4.23774 4.99992 5.00024 4.99992Z" stroke="#73B704" stroke-width="0.5" stroke-linecap="round" stroke-linejoin="round"/>
<path d="M7.62921 4.99992C8.47087 4.99992 9.08754 4.31659 9.00421 3.47909L8.88754 2.33325C8.73754 1.24992 8.32087 0.833252 7.22921 0.833252H5.95837L6.25004 3.75409C6.32087 4.44159 6.94171 4.99992 7.62921 4.99992Z" stroke="#73B704" stroke-width="0.5" stroke-linecap="round" stroke-linejoin="round"/>
<path d="M2.3502 4.99992C3.0377 4.99992 3.65853 4.44159 3.7252 3.75409L3.81686 2.83325L4.01686 0.833252H2.74603C1.65436 0.833252 1.2377 1.24992 1.0877 2.33325L0.975195 3.47909C0.891862 4.31659 1.50853 4.99992 2.3502 4.99992Z" stroke="#73B704" stroke-width="0.5" stroke-linecap="round" stroke-linejoin="round"/>
<path d="M5.00004 7.08325C4.30421 7.08325 3.95837 7.42909 3.95837 8.12492V9.16659H6.04171V8.12492C6.04171 7.42909 5.69587 7.08325 5.00004 7.08325Z" stroke="#73B704" stroke-width="0.5" stroke-linecap="round" stroke-linejoin="round"/>
</svg>
